{"title":"Attack on Titan-Shingeki no Kyojin S02E8 720p (EngDub) Download","magnet":"magnet:?xt=urn:btih:d9edfbad055640202b26a1f751064a2ce1ca935f&dn=Attack+on+Titan-Shingeki+no+Kyojin+S02E8+720p+%28EngDub%29+Download&tr=udp%3A%2F%2Ftracker.leechers-paradise.org%3A6969&tr=udp%3A%2F%2Fzer0day.ch%3A1337&tr=udp%3A%2F%2Fopen.demonii.com%3A1337&tr=udp%3A%2F%2Ftracker.coppersurfer.tk%3A6969&tr=udp%3A%2F%2Fexodus.desync.com%3A6969","uploader":"digimaza","categoryP":"video","categoryS":"hd___tv_shows","size":"318222737","seeders":"7","leechers":"5","description":"Shingeki no Kyojin S2E08 720p (EngDub) Download  <a href=\"\nhttps://s12.postimg.org/f3p0ohpz1/7a823f65856baabc65ad210e54ac5d27.jpg\" rel=\"nofollow\" target=\"_NEW\">\nhttps://s12.postimg.org/f3p0ohpz1/7a823f65856baabc65ad210e54ac5d27.jpg</a>\r\n\r\n..::File Specs::.. \r\nGeneral \r\n\r\nFormat                                   : Matroska \r\nFormat version                           : Version 4 / Version 2 \r\nFile size                                : 303 MiB \r\nDuration                                 : 24 min 10 s \r\nOverall bit rate                         : 1 756 kb/s \r\n\r\nVideo \r\nID                                       : 1 \r\nFormat                                   : AVC \r\nFormat/Info                              : Advanced Video Codec \r\nFormat profile                           : <a class=\"__cf_email__\" href=\"/cdn-cgi/l/email-protection\" data-cfemail=\"3870515f5078740b1609\">[email&#xA0;protected]</a><script data-cfhash=\"f9e31\" type=\"text/javascript\">/* <![CDATA[ */!function(t,e,r,n,c,a,p){try{t=document.currentScript||function(){for(t=document.getElementsByTagName('script'),e=t.length;e--;)if(t[e].getAttribute('data-cfhash'))return t[e]}();if(t&&(c=t.previousSibling)){p=t.parentNode;if(a=c.getAttribute('data-cfemail')){for(e='',r='0x'+a.substr(0,2)|0,n=2;a.length-n;n+=2)e+='%'+('0'+('0x'+a.substr(n,2)^r).toString(16)).slice(-2);p.replaceChild(document.createTextNode(decodeURIComponent(e)),c)}p.removeChild(t)}}catch(u){}}()/* ]]> */</script> \r\nFormat settings, CABAC                   : Yes \r\nFormat settings, ReFrames                : 1 frame \r\nCodec ID                                 : V_MPEG4/ISO/AVC \r\nDuration                                 : 24 min 10 s \r\nBit rate                                 : 1 561 kb/s \r\nWidth                                    : 1 280 pixels \r\nHeight                                   : 720 pixels \r\nDisplay aspect ratio                     : 16:9 \r\nFrame rate mode                          : Constant \r\nFrame rate                               : 23.976 (24000/1001) FPS \r\nColor space                              : YUV \r\nChroma subsampling                       : 4:2:0 \r\nBit depth                                : 8 bits \r\nScan type                                : Progressive \r\nBits/(Pixel*Frame)                       : 0.071 \r\nStream size                              : 270 MiB (89%) \r\nDefault                                  : Yes \r\nForced                                   : No \r\nColor range                              : Limited \r\n\r\nAudio \r\nID                                       : 2 \r\nFormat                                   : AAC \r\nFormat/Info                              : Advanced Audio Codec \r\nFormat profile                           : LC \r\nCodec ID                                 : A_AAC \r\nDuration                                 : 24 min 10 s \r\nBit rate                                 : 192 kb/s \r\nChannel(s)                               : 2 channels \r\nChannel positions                        : Front: L R \r\nSampling rate                            : 44.1 kHz \r\nFrame rate                               : 43.066 FPS (1024 spf) \r\nCompression mode                         : Lossy \r\nStream size                              : 33.2 MiB (11%) \r\n <a href=\"\nhttps://s4.postimg.org/yt3b603y5/vlcsnap-2017-06-19-19h38m40s172.png\" rel=\"nofollow\" target=\"_NEW\">\nhttps://s4.postimg.org/yt3b603y5/vlcsnap-2017-06-19-19h38m40s172.png</a>  <a href=\"\nhttps://s4.postimg.org/t66y8j1fh/vlcsnap-2017-06-19-19h38m44s057.png\" rel=\"nofollow\" target=\"_NEW\">\nhttps://s4.postimg.org/t66y8j1fh/vlcsnap-2017-06-19-19h38m44s057.png</a>  <a href=\"\nhttps://s4.postimg.org/webflknp9/vlcsnap-2017-06-19-19h38m48s429.png\" rel=\"nofollow\" target=\"_NEW\">\nhttps://s4.postimg.org/webflknp9/vlcsnap-2017-06-19-19h38m48s429.png</a> \r\n\r\n================================================================ \r\nSeed Seed Seed Seed Seed Seed Seed Seed Seed Seed Seed Seed Seed \r\nTo direct download or Watch Online this file, Visit. \r\r\nSeed Seed Seed Seed Seed Seed Seed Seed Seed Seed Seed Seed Seed \r\n================================================================","last_updated":"2017-06-20T12:04:56.461Z","parsed":{"xt":"urn:btih:d9edfbad055640202b26a1f751064a2ce1ca935f","dn":"Attack on Titan-Shingeki no Kyojin S02E8 720p (EngDub) Download","tr":["udp://exodus.desync.com:6969","udp://open.demonii.com:1337","udp://tracker.coppersurfer.tk:6969","udp://tracker.leechers-paradise.org:6969","udp://zer0day.ch:1337"],"infoHash":"d9edfbad055640202b26a1f751064a2ce1ca935f","infoHashBuffer":{"type":"Buffer","data":[217,237,251,173,5,86,64,32,43,38,161,247,81,6,74,44,225,202,147,95]},"name":"Attack on Titan-Shingeki no Kyojin S02E8 720p (EngDub) Download","announce":["udp://exodus.desync.com:6969","udp://open.demonii.com:1337","udp://tracker.coppersurfer.tk:6969","udp://tracker.leechers-paradise.org:6969","udp://zer0day.ch:1337"],"urlList":[]}}